<svg width="24" height="24" viewBox="0 0 24 24" fill="none" xmlns="http://www.w3.org/2000/svg">
<rect opacity="0.01" x="24" y="24" width="24" height="24" transform="rotate(180 24 24)" fill="#FDB300"/>
<path d="M15.1508 8.4C13.6028 8.39469 12.1163 9.0052 11.019 10.0969C9.92157 11.1887 9.30343 12.672 9.30078 14.22V20.1C9.30078 20.3387 9.3956 20.5676 9.56439 20.7364C9.73317 20.9052 9.96209 21 10.2008 21H12.3008C12.7978 21 13.2008 20.5971 13.2008 20.1V14.22C13.2004 13.6687 13.4346 13.1432 13.8448 12.7749C14.2551 12.4067 14.8027 12.2303 15.3508 12.29C16.3567 12.4167 17.1087 13.2761 17.1008 14.29V20.1C17.1008 20.5971 17.5037 21 18.0008 21H20.1008C20.5978 21 21.0008 20.5971 21.0008 20.1V14.22C20.9981 12.672 20.38 11.1887 19.2826 10.0969C18.1852 9.0052 16.6987 8.39469 15.1508 8.4V8.4Z" fill="#FDB300"/>
<rect x="3" y="9.29999" width="4.5" height="11.7" rx="0.9" fill="#FDB300"/>
<circle cx="5.25" cy="5.25" r="2.25" fill="#FDB300"/>
</svg>
